<svg xmlns="http://www.w3.org/2000/svg" width="48" height="48" viewBox="0 0 48 48">
  <symbol id="menu">
    <path d="M6 12h36v4H6v-4Zm0 14v-4h36v4H6Zm0 10v-4h36v4H6Z"/>
  </symbol>
  <symbol id="close">
    <path d="M38 13 27 24l11 11-3 3-11-11-11 11-3-3 11-11-11-11 3-3 11 11 11-11 3 3Z" />
  </symbol>
  <symbol id="phone">
    <path d="M13.2 21.6a30 30 0 0 0 13.2 13.2l4.4-4.4c.7-.6 1.4-.8 2.1-.5 2.3.8 4.6 1.1 7.1 1.1a2 2 0 0 1 2 2v7a2 2 0 0 1-2 2 33 33 0 0 1-24-10A33 33 0 0 1 6 8a2 2 0 0 1 2-2h7a2 2 0 0 1 2 2c0 2.5.3 4.8 1 7 .3 1 .2 1.6-.4 2.2l-4.4 4.4Z"/>
  </symbol>
  <symbol id="email">
    <path d="m24 22 16-10H8l16 10Zm16 14V16L24 26 8 16v20h32Zm0-28c1 0 2 .4 2.8 1.2.8.8 1.2 1.7 1.2 2.8v24c0 1-.4 2-1.3 2.8-.7.8-1.6 1.2-2.7 1.2H8c-1 0-2-.4-2.8-1.2A4 4 0 0 1 4 36V12a4 4 0 0 1 4-4h32Z"/>
  </symbol>
  <symbol id="facebook">
    <path d="M6 24C6 32.9 12.5 40.3 21 41.8L21.1003 41.7197C21.0669 41.7133 21.0334 41.7067 21 41.7V29H16.5V24H21V20C21 15.5 23.9 13 28 13C29.3 13 30.7 13.2 32 13.4V18H29.7C27.5 18 27 19.1 27 20.5V24H31.8L31 29H27V41.7C26.9666 41.7067 26.9331 41.7133 26.8997 41.7197L27 41.8C35.5 40.3 42 32.9 42 24C42 14.1 33.9 6 24 6C14.1 6 6 14.1 6 24Z" />
  </symbol>
  <symbol id="linkedin">
    <path fill-rule="evenodd" d="M9.4 7C8.1 7 7 8 7 9.4v29.2C7 39.9 8 41 9.4 41h29.2c1.3 0 2.4-1 2.4-2.4V9.4C41 8.1 40 7 38.6 7H9.4Zm5.2 10.6a3 3 0 1 0 0-6 3 3 0 0 0 0 6Zm5.7 2.1h4.9V22s1.3-2.7 5-2.7c3.1 0 5.8 1.6 5.8 6.4V36h-5v-9c0-2.8-1.6-3-2.8-3-2.4 0-2.8 2-2.8 3.5v8.5h-5.1V19.7Zm-3.1 0h-5.1V36h5.1V19.7Z" clip-rule="evenodd"/>
  </symbol>
  <symbol id="youtube">
    <path fill-rule="evenodd" d="M39.8 10.2a5 5 0 0 1 3.6 3.6c.9 3.2.8 9.8.8 9.8s0 6.6-.8 9.7a5 5 0 0 1-3.6 3.6c-3.1.8-15.8.8-15.8.8s-12.6 0-15.8-.8a5 5 0 0 1-3.6-3.6c-.8-3.1-.8-9.7-.8-9.7s0-6.6.8-9.8a5.2 5.2 0 0 1 3.6-3.6c3.1-.8 15.8-.8 15.8-.8s12.7 0 15.8.8Zm-9.3 13.1-10.5 6v-12l10.5 6Z" clip-rule="evenodd"/>
  </symbol>
  <symbol id="pdf">
    <path fill-rule="evenodd" clip-rule="evenodd" d="M7.5 6C7.5 4.34315 8.84315 3 10.5 3H30.2574C31.053 3 31.8161 3.31607 32.3787 3.87868L39.6213 11.1213C40.1839 11.6839 40.5 12.447 40.5 13.2426V42C40.5 43.6569 39.1569 45 37.5 45H10.5C8.84314 45 7.5 43.6569 7.5 42V6Z" fill="#D04323"/>
    <path fill-rule="evenodd" clip-rule="evenodd" d="M40.5 13.5V13.2426C40.5 12.447 40.1839 11.6839 39.6213 11.1213L32.3787 3.87868C31.8161 3.31607 31.053 3 30.2574 3H30V9.75C30 11.8211 31.6789 13.5 33.75 13.5H40.5Z" fill="#E85433"/>
    <path d="M16.2184 32.996C16.883 32.996 17.4583 33.1068 17.9443 33.3283C18.4374 33.5499 18.8162 33.8643 19.0806 34.2717C19.345 34.679 19.4773 35.1614 19.4773 35.7189C19.4773 36.2692 19.345 36.7516 19.0806 37.1661C18.8162 37.5734 18.4374 37.8879 17.9443 38.1094C17.4583 38.3238 16.883 38.431 16.2184 38.431H14.7069V40.5H12.9702V32.996H16.2184ZM16.1219 37.016C16.6436 37.016 17.0402 36.9052 17.3118 36.6837C17.5834 36.455 17.7192 36.1334 17.7192 35.7189C17.7192 35.2972 17.5834 34.9756 17.3118 34.7541C17.0402 34.5254 16.6436 34.411 16.1219 34.411H14.7069V37.016H16.1219Z" fill="white"/>
    <path d="M20.6099 32.996H24.0189C24.8336 32.996 25.5518 33.1532 26.1736 33.4677C26.8025 33.775 27.2885 34.2109 27.6315 34.7755C27.9817 35.3401 28.1568 35.9976 28.1568 36.748C28.1568 37.4984 27.9817 38.1559 27.6315 38.7205C27.2885 39.2851 26.8025 39.7246 26.1736 40.039C25.5518 40.3464 24.8336 40.5 24.0189 40.5H20.6099V32.996ZM23.9331 39.0742C24.6835 39.0742 25.2802 38.867 25.7233 38.4525C26.1736 38.0308 26.3987 37.4627 26.3987 36.748C26.3987 36.0333 26.1736 35.4687 25.7233 35.0542C25.2802 34.6326 24.6835 34.4218 23.9331 34.4218H22.3465V39.0742H23.9331Z" fill="white"/>
    <path d="M31.0959 34.3896V36.3728H34.5692V37.7664H31.0959V40.5H29.3593V32.996H35.0301V34.3896H31.0959Z" fill="white"/>
  </symbol>
</svg>
