<svg xmlns="http://www.w3.org/2000/svg" width="48" height="48" viewBox="0 0 48 48">
  <symbol id="menu">
    <path d="M6 12h36v4H6v-4Zm0 14v-4h36v4H6Zm0 10v-4h36v4H6Z"/>
  </symbol>
  <symbol id="close">
    <path d="M38 13 27 24l11 11-3 3-11-11-11 11-3-3 11-11-11-11 3-3 11 11 11-11 3 3Z" />
  </symbol>
  <symbol id="phone">
    <path d="M13.2 21.6a30 30 0 0 0 13.2 13.2l4.4-4.4c.7-.6 1.4-.8 2.1-.5 2.3.8 4.6 1.1 7.1 1.1a2 2 0 0 1 2 2v7a2 2 0 0 1-2 2 33 33 0 0 1-24-10A33 33 0 0 1 6 8a2 2 0 0 1 2-2h7a2 2 0 0 1 2 2c0 2.5.3 4.8 1 7 .3 1 .2 1.6-.4 2.2l-4.4 4.4Z"/>
  </symbol>
  <symbol id="email">
    <path d="m24 22 16-10H8l16 10Zm16 14V16L24 26 8 16v20h32Zm0-28c1 0 2 .4 2.8 1.2.8.8 1.2 1.7 1.2 2.8v24c0 1-.4 2-1.3 2.8-.7.8-1.6 1.2-2.7 1.2H8c-1 0-2-.4-2.8-1.2A4 4 0 0 1 4 36V12a4 4 0 0 1 4-4h32Z"/>
  </symbol>
  <symbol id="facebook">
    <path d="M6 24C6 32.9 12.5 40.3 21 41.8L21.1003 41.7197C21.0669 41.7133 21.0334 41.7067 21 41.7V29H16.5V24H21V20C21 15.5 23.9 13 28 13C29.3 13 30.7 13.2 32 13.4V18H29.7C27.5 18 27 19.1 27 20.5V24H31.8L31 29H27V41.7C26.9666 41.7067 26.9331 41.7133 26.8997 41.7197L27 41.8C35.5 40.3 42 32.9 42 24C42 14.1 33.9 6 24 6C14.1 6 6 14.1 6 24Z" />
  </symbol>
  <symbol id="linkedin">
    <path fill-rule="evenodd" d="M9.4 7C8.1 7 7 8 7 9.4v29.2C7 39.9 8 41 9.4 41h29.2c1.3 0 2.4-1 2.4-2.4V9.4C41 8.1 40 7 38.6 7H9.4Zm5.2 10.6a3 3 0 1 0 0-6 3 3 0 0 0 0 6Zm5.7 2.1h4.9V22s1.3-2.7 5-2.7c3.1 0 5.8 1.6 5.8 6.4V36h-5v-9c0-2.8-1.6-3-2.8-3-2.4 0-2.8 2-2.8 3.5v8.5h-5.1V19.7Zm-3.1 0h-5.1V36h5.1V19.7Z" clip-rule="evenodd"/>
  </symbol>
  <symbol id="youtube">
    <path fill-rule="evenodd" d="M39.8 10.2a5 5 0 0 1 3.6 3.6c.9 3.2.8 9.8.8 9.8s0 6.6-.8 9.7a5 5 0 0 1-3.6 3.6c-3.1.8-15.8.8-15.8.8s-12.6 0-15.8-.8a5 5 0 0 1-3.6-3.6c-.8-3.1-.8-9.7-.8-9.7s0-6.6.8-9.8a5.2 5.2 0 0 1 3.6-3.6c3.1-.8 15.8-.8 15.8-.8s12.7 0 15.8.8Zm-9.3 13.1-10.5 6v-12l10.5 6Z" clip-rule="evenodd"/>
  </symbol>
</svg>
