<svg width="164" height="64" viewBox="0 0 164 64" fill="none" xmlns="http://www.w3.org/2000/svg">
<g id="Logo Alcedo / Horizontal">
<path id="Vector" fill-rule="evenodd" clip-rule="evenodd" d="M45.4102 50.1122H60.2082V46.0882H49.7882V25.0342H45.4102V50.1122Z" fill="white"/>
<path id="Vector_2" fill-rule="evenodd" clip-rule="evenodd" d="M83.8219 28.3659C81.4179 25.4739 78.52 24.3999 75.2 24.3999C67.678 24.3999 62.252 29.6159 62.252 37.6619C62.252 45.5179 67.678 50.7319 75.2 50.7319C78.838 50.7319 82.168 49.4139 84.388 46.2719L80.75 43.6319C79.15 45.7679 77.236 46.7119 75.262 46.7119C70.206 46.7119 66.814 42.7519 66.814 37.4099C66.814 32.3819 70.214 28.4219 75.262 28.4219C76.99 28.4219 78.6619 28.9879 80.4419 30.9359L83.8219 28.3659Z" fill="white"/>
<path id="Vector_3" fill-rule="evenodd" clip-rule="evenodd" d="M87.5225 50.1122H104.354V46.0882H91.8385V39.3002H103.122V35.2162H91.8385V29.0562H103.738V25.0342H87.5225V50.1122Z" fill="white"/>
<path id="Vector_4" fill-rule="evenodd" clip-rule="evenodd" d="M113.234 46.0902V29.0582H117.18C122.544 29.0582 126.43 31.5082 126.43 37.6042C126.43 43.6382 121.928 46.0902 116.44 46.0902H113.234ZM108.856 50.1122H117.982C123.9 50.1122 130.992 46.1522 130.992 37.6042C130.992 29.0562 124.95 25.0342 118.536 25.0342H108.856V50.1122Z" fill="white"/>
<path id="Vector_5" fill-rule="evenodd" clip-rule="evenodd" d="M138.636 37.4161C138.636 32.3881 142.036 28.4281 147.084 28.4281C152.2 28.4281 155.6 32.3881 155.6 37.4161C155.6 42.7581 152.2 46.7181 147.09 46.7181C142.028 46.7181 138.636 42.7581 138.636 37.4161ZM134.074 37.6681C134.074 45.5241 139.5 50.7381 147.074 50.7381C154.72 50.6141 160.146 45.3381 160.146 37.5381C160.146 29.4921 154.72 24.2761 147.074 24.4021C139.5 24.4001 134.074 29.6221 134.074 37.6681Z" fill="white"/>
<path id="Vector_6" fill-rule="evenodd" clip-rule="evenodd" d="M24.8165 33.7702C24.9651 34.0116 25.0586 34.2829 25.0905 34.5646C25.1223 34.8464 25.0915 35.1317 25.0005 35.4002C24.6925 36.6002 23.5225 38.2922 23.5225 38.2922C28.9465 35.5262 33.3865 34.7722 37.8265 34.5202C40.6005 34.3962 42.5125 34.5842 45.2265 35.1502V35.2762L44.7945 35.3382C40.1685 35.1502 35.2365 36.0922 30.1185 37.8522C27.1585 38.7942 25.1865 39.7382 21.9805 41.9362L18.4005 44.4002C17.1045 45.2162 15.4405 45.6562 13.9605 45.9722H13.8405C14.2725 45.4062 14.7665 44.9022 15.1965 44.3382C15.6905 43.5822 15.7525 42.4522 16.7385 41.8862C17.8485 41.3202 19.5765 40.8182 20.0685 39.1202C20.3765 38.1202 20.6225 37.3622 20.5005 36.2922C20.5005 35.9782 20.0685 35.5382 19.7005 35.5382C15.1985 35.3502 10.7005 38.0522 6.81445 40.4402C8.35645 38.8702 10.0145 37.8642 11.6245 36.7322C14.8245 35.0982 17.9125 33.7162 22.7845 33.2122C23.0905 33.2002 24.4465 33.2682 24.8165 33.7702Z" fill="#1A9FDE"/>
<path id="Vector_7" fill-rule="evenodd" clip-rule="evenodd" d="M36.3997 13.2202V34.1482C34.9917 34.2036 33.5887 34.3506 32.1997 34.5882V17.9322L21.5477 32.8282C18.8957 33.0162 16.7997 33.7082 15.0117 34.4002L30.3037 13.2202H36.3997Z" fill="white"/>
<path id="Vector_8" fill-rule="evenodd" clip-rule="evenodd" d="M36.4002 36.7881V50.1741H32.2002V37.6681C33.5722 37.3541 35.0002 37.0381 36.4002 36.7881Z" fill="white"/>
<path id="Vector_9" fill-rule="evenodd" clip-rule="evenodd" d="M19.2656 36.0962L9.09361 50.1122H3.59961L12.2936 37.9122C14.1496 37.1022 17.2936 36.1582 19.2656 36.0962Z" fill="white"/>
</g>
</svg>
