<svg xmlns="http://www.w3.org/2000/svg" xml:space="preserve" style="position: absolute; width: 0; height: 0;">
  <style>
    @keyframes scan {
      from { transform: translate(-480px);}
      to   { transform: translate(0); }
    }
    .scan {          
      animation: scan 2s ease-in;
      animation-iteration-count: infinite;
    }
  </style>

  <defs>
    <filter id="burn">
      <feColorMatrix type="matrix" values=" 0.500 -0.500  2.000  0.000 -0.700 
                              -0.100  1.000  1.500  0.000 -0.200 
                              0.000  1.000  1.000  0.000  1.000 
                              0.000  0.000  0.000  1.000  0.000">
      </feColorMatrix>
    </filter>
    <linearGradient id="scan-trail">
      <stop offset="40%" stop-color="transparent"></stop>
      <stop offset="100%" stop-color="#000"></stop>
    </linearGradient>
    <linearGradient id="scan-line">
      <stop offset="0%" stop-color="transparent"></stop>
      <stop offset="100%" stop-color="#32C1FF"></stop>
    </linearGradient>
    
    <path id="inner-shape" d="M914.43 93.65c2.91 19.93 14.72 35.26 27.54 50.45 16.54 19.6 18.38 19.97 18.38 38.36v133.26H839.83l-17.4 17.4-19.43-.58-17.65 17.65V93.65h129.08Z" transform="rotate(45 545.18 -624.62)"></path>
    
    <clipPath id="clip">
      <use href="#inner-shape"></use>
    </clipPath>
    
    <g clip-path="url(#clip)" id="scanner">
      <g class="scan">
        <path d="M480 24m8 0v336h-64v-336z" fill="url(#scan-line)"></path>
        <path d="M480 24v336h-336v-336z" fill="url(#scan-trail)" filter="url(#burn)" opacity="0.5"></path>
      </g>
    </g>
  </defs>

  <symbol id="logo" viewBox="0 0 384 384">
    <path d="M64 259.97h20v40h50v20H64v-60Zm256 60h-70v-20h50v-40h20v60Zm-186-256v20H84v40H64v-60h70Zm186 60h-20v-40h-50v-20h70v60Z" fill="currentColor"></path>

    <use href="#inner-shape" fill="#1a9850"></use>
    <path d="M509.99 194.01a5 5 0 0 0-5 5V301.1a5 5 0 0 0 5 5 5 5 0 0 0 5-5v-15a5 5 0 0 1 5-5h20a5 5 0 0 1 5 5v5a5 5 0 0 0 5 5h5a5 5 0 0 0 5-5v-42.07a5 5 0 0 1 5-5 5 5 0 0 1 5 5v5a5 5 0 0 0 5 5 5 5 0 0 1 5 5v10a5 5 0 0 0 5 5h10a10 10 0 0 0 10-10v-15a5 5 0 0 1 5-5 5 5 0 0 0 5-5v-47.5a7.5 7.5 0 1 0-15 0v7.5a5 5 0 1 1-10 0v-35a5 5 0 0 0-5-5 5 5 0 0 1-5-5v-7.5a7.5 7.5 0 1 0-15 0v40a2.5 2.5 0 0 1-5 0v-2.5a5 5 0 0 0-5-5h-20a5 5 0 0 0-5 5v15a5 5 0 0 1-5 5h-5a5 5 0 0 1-5-5v-5a5 5 0 0 0-5-5Zm-20 70a5 5 0 0 0-5 5v15a5 5 0 0 0 5 5 5 5 0 0 0 5-5v-15a5 5 0 0 0-5-5Z" style="fill:#006837" transform="rotate(45 375.44 -213.57)"></path>
    <path d="M831.54 245.16a5.02 5.02 0 0 0 0 10.05 5.02 5.02 0 0 0 0-10.05Zm-45.08-10.05a5.01 5.01 0 0 1 5-5.02h.01a5 5 0 0 1 5 5.02v5.03a5.03 5.03 0 0 0 5.02 5.02c2.76 0 5-2.25 5-5.02v-15.56c0-3.24.96-5.02 2.75-7.71 3.27-4.92 13.19-20.79 16.45-25.7.55-.83.84-1.8.84-2.79v-3.5a5.02 5.02 0 1 1 10.02 0 5 5 0 1 0 10.02 0v-20.1c0-4.68.9-6.38 3.23-9.88l15.13-22.75a10.07 10.07 0 0 0 1.68-5.57V104.5a5.03 5.03 0 0 1 5-5.02 5.02 5.02 0 0 1 5.02 5.02v30.15a5.02 5.02 0 1 0 10.02 0V99.48a5.03 5.03 0 0 1 5-5.02h-105.2V235.1ZM831.54 210c-2.76 0-5 2.25-5 5.02v10.05a5.02 5.02 0 1 0 10.02 0v-10.05a5.02 5.02 0 0 0-5.02-5.02Zm30.06-50.24a5 5 0 0 0-5.01 5.03v20.09a5.03 5.03 0 0 0 5 5.02 5.02 5.02 0 0 0 5.02-5.02 5.02 5.02 0 0 1 5-5.02 5.02 5.02 0 0 0 5.02-5.03v-10.05a5.02 5.02 0 0 0-5.01-5.02H861.6Z" style="fill:#ffffbf" transform="matrix(.706 .706 -.704 .704 -281.47 -568.45)"></path>
    <path d="M831.54 94.46h35.07a10 10 0 0 0-10.02 10.04v20.1c0 5.55-4.49 10.05-10.02 10.05a5 5 0 0 0-5 5.02c0 5.55-4.5 10.05-10.03 10.05h-12.68a5 5 0 0 0-3.85 1.8l-2.34 2.83a5.03 5.03 0 0 0-1.16 3.21c0 2.78 10.01 8.7 10.01 12.25v10.05a5.02 5.02 0 0 1-5 5.02 5.01 5.01 0 0 0-5.01 5.02v3.35c0 1.09-.36 2.15-1 3.02L797.97 213a5 5 0 0 1-4 2.01h-2.51a5 5 0 0 0-5.01 5.02v5.03-130.6h20.04c0 7.26 10.01 5.74 10.01 17.58a2.5 2.5 0 0 0 2.5 2.51h.01a2.5 2.5 0 0 0 2.5-2.5V99.47a5.02 5.02 0 0 1 5.01-5.02h5.01Z" style="fill:#fdae61" transform="matrix(.706 .706 -.704 .704 -281.47 -568.45)"></path>
    <path d="M801.49 189.9a5.03 5.03 0 0 0-5.01-5.02h-5.01a5 5 0 0 1-5.01-5.02v25.11a5.02 5.02 0 0 1 5-5.02h2.34c1.67 0 3.24-.84 4.17-2.24l2.67-4.03c.55-.83.85-1.8.85-2.79v-.99Zm-15.03-95.44h10.02v12.03c0 1.98.58 3.92 1.67 5.56l14.53 21.92a10.07 10.07 0 0 1 1.67 5.56v.14a5.02 5.02 0 0 1-5 5.02h-7.86a5.02 5.02 0 0 0-5.01 5.03v8.73c0 2.78-10.02 13.6-10.02 16.38V94.46Zm55.1 15.07a5.03 5.03 0 0 0-5-5.03h-5.02a5 5 0 0 0-5 5.03v25.12a5.02 5.02 0 1 0 10.02 0v-3.5c0-1 .29-1.97.83-2.8l3.33-5c.55-.82.84-1.8.84-2.78v-11.04Z" style="fill:#f46d43" transform="matrix(.706 .706 -.704 .704 -281.47 -568.45)"></path>
  </symbol>

  <symbol id="logotype" viewBox="320 124 960 260">
    <path fill="currentColor" d="M412.26 240c-11.1 0-20.99-2.13-29.8-6.24-8.99-4.11-15.83-9.94-20.85-17.23-5.17-7.3-7.6-15.4-7.6-24.53 0-9.15 2.43-17.37 7.6-24.67 5.02-7.3 11.86-13 20.84-17.1 8.82-4.11 18.7-6.23 29.81-6.23 11.1 0 20.98 2.12 29.8 6.23 8.82 4.1 15.82 9.8 20.84 17.1a42.58 42.58 0 0 1 7.6 24.67c0 9.14-2.58 17.23-7.6 24.53-5.02 7.29-12.02 13.12-20.84 17.23-8.82 4.1-18.7 6.24-29.8 6.24Zm0-20c6.41 0 12.35-1.13 17.51-3.63a28.97 28.97 0 0 0 12.35-9.87 24.67 24.67 0 0 0 4.38-14.5c0-5.38-1.4-10.25-4.38-14.5a30.16 30.16 0 0 0-12.35-10c-5.16-2.38-11.1-3.5-17.5-3.5-6.43 0-12.37 1.12-17.53 3.5a29.7 29.7 0 0 0-12.2 10 24.84 24.84 0 0 0-4.53 14.5c0 5.37 1.56 10.25 4.53 14.5a28.53 28.53 0 0 0 12.2 9.87c5.16 2.5 11.1 3.63 17.52 3.63Zm276.04 20c-11.1 0-21-2.13-29.82-6.24-8.97-4.11-15.82-9.94-20.84-17.23-5.17-7.3-7.6-15.4-7.6-24.53 0-9.15 2.43-17.37 7.6-24.67 5.02-7.3 11.87-13 20.84-17.1 8.82-4.11 18.71-6.23 29.81-6.23 11.1 0 20.98 2.12 29.81 6.23 8.82 4.1 15.81 9.8 20.83 17.1a42.59 42.59 0 0 1 7.61 24.67c0 9.14-2.59 17.23-7.6 24.53-5.03 7.29-12.02 13.12-20.84 17.23-8.83 4.1-18.7 6.24-29.8 6.24Zm0-20c6.4 0 12.34-1.13 17.5-3.63a29 29 0 0 0 12.36-9.87 24.74 24.74 0 0 0 4.38-14.5c0-5.38-1.4-10.25-4.38-14.5-2.97-4.25-7.2-7.63-12.36-10-5.16-2.38-11.1-3.5-17.5-3.5-6.42 0-12.37 1.12-17.53 3.5a29.76 29.76 0 0 0-12.2 10 24.84 24.84 0 0 0-4.53 14.5c0 5.37 1.56 10.25 4.53 14.5a28.6 28.6 0 0 0 12.2 9.87c5.16 2.5 11.11 3.63 17.52 3.63Zm92-74.5h54.93c8.8 0 16.44 1.18 22.95 3.66 6.38 2.48 11.34 5.9 14.88 10.39 3.54 4.49 5.24 9.8 5.24 15.95 0 6.14-1.7 11.45-5.24 15.94s-8.5 7.9-14.88 10.39c-6.5 2.49-14.16 3.67-22.95 3.67 3.04 2.37 17.14 13 37.78 13h3.3v20h-6.58c-27.97 0-60.85-28.85-65.43-33v33h-24v-93Zm24 20v20h34c5.26 0 9.24-.91 11.92-2.63a8.3 8.3 0 0 0 4.08-7.37c0-3.2-1.39-5.74-4.08-7.46-2.68-1.72-6.66-2.54-11.92-2.54h-34Zm-205.86 60a53.93 53.93 0 0 1-12.8 8.26c-8.83 4.1-18.72 6.24-29.82 6.24-11.1 0-20.99-2.13-29.8-6.24-8.98-4.11-15.82-9.94-20.84-17.23-5.17-7.3-7.6-15.4-7.6-24.53 0-9.15 2.43-17.37 7.6-24.67 5.02-7.3 11.86-13 20.83-17.1 8.82-4.11 18.71-6.23 29.81-6.23 11.1 0 21 2.12 29.81 6.23a54.78 54.78 0 0 1 12.81 8.18l-21.74 10.86a33.43 33.43 0 0 0-3.36-1.77c-5.16-2.38-11.1-3.5-17.52-3.5-6.4 0-12.35 1.12-17.5 3.5a29.7 29.7 0 0 0-12.2 10 24.85 24.85 0 0 0-4.55 14.5c0 5.37 1.57 10.25 4.54 14.5a28.53 28.53 0 0 0 12.2 9.87c5.16 2.5 11.1 3.63 17.51 3.63 6.41 0 12.36-1.13 17.52-3.63 1.08-.47 2.11-1 3.1-1.55V192h22v33.5Z"></path>
  </symbol>
</svg>